<svg width="50" height="50" viewBox="0 0 50 50" fill="none" xmlns="http://www.w3.org/2000/svg">
<path fill-rule="evenodd" clip-rule="evenodd" d="M2.61433 0.0978279C1.59669 0.297484 0.710313 0.990322 0.268788 1.93097C0.0558509 2.3846 0.00948793 2.62342 0.00948793 3.26683C0.00929231 4.77832 -0.652896 4.02775 10.52 15.181L20.4024 25.046L10.4406 35.0098C2.34505 43.1071 0.435852 45.0653 0.249715 45.4622C-0.0769781 46.159 -0.0842162 47.4063 0.234456 48.0995C0.519188 48.719 1.14166 49.3627 1.77001 49.6873C2.47856 50.0533 3.60389 50.1043 4.41094 49.8071C4.97815 49.598 5.33233 49.2571 14.9993 39.6158L25.0009 29.6409L34.953 39.5649C42.9467 47.5359 45.0015 49.5348 45.3943 49.7222C45.8047 49.9179 46.0328 49.9552 46.8126 49.954C47.6264 49.9527 47.803 49.9205 48.2347 49.6941C48.8339 49.38 49.4949 48.6843 49.7798 48.0679C50.0848 47.408 50.0709 46.1442 49.7511 45.4622C49.565 45.0653 47.6558 43.1071 39.5603 35.0098L29.5985 25.046L39.4808 15.181C50.6537 4.02775 49.9915 4.77832 49.9914 3.26683C49.9914 2.62694 49.9448 2.38489 49.7376 1.94611C48.9456 0.268864 46.9593 -0.422509 45.2996 0.401415C45.0412 0.529668 41.4738 4.02053 34.9528 10.5261L25.0004 20.455L15.048 10.5261C8.52708 4.02053 4.95967 0.529668 4.70125 0.401415C4.37025 0.237118 3.28307 -0.0327692 3.09693 0.00327445C3.06651 0.0091352 2.84927 0.0516256 2.61433 0.0978279Z" fill="black"/>
</svg>